<svg xmlns="http://www.w3.org/2000/svg" width="20" height="18" viewBox="0 0 20 18" fill="currentColor">
    <path d="M15.5363 11.1267C15.2973 11.3568 15.1874 11.6896 15.2419 12.0159L16.0623 16.5259C16.1315 16.9082 15.9691 17.295 15.647 17.5159C15.3314 17.7451 14.9115 17.7726 14.5673 17.5892L10.48 15.4717C10.3379 15.3966 10.1801 15.3562 10.0186 15.3517H9.76852C9.68178 15.3645 9.59688 15.392 9.51936 15.4342L5.43118 17.5617C5.22908 17.6626 5.00021 17.6983 4.77596 17.6626C4.22964 17.5599 3.86512 17.0429 3.95463 16.4975L4.77596 11.9875C4.83041 11.6584 4.72059 11.3238 4.48158 11.0901L1.1492 7.88175C0.870505 7.61316 0.773607 7.20983 0.900959 6.84591C1.02462 6.48291 1.34023 6.218 1.72136 6.15841L6.30787 5.4975C6.65671 5.46175 6.96309 5.25092 7.11997 4.93925L9.14099 0.823415C9.18898 0.731748 9.25081 0.647415 9.32556 0.575915L9.40862 0.511748C9.45199 0.464081 9.50182 0.424665 9.55719 0.392581L9.65778 0.355915L9.81466 0.291748H10.2032C10.5502 0.327498 10.8556 0.533748 11.0153 0.841748L13.0631 4.93925C13.2107 5.239 13.4977 5.44708 13.829 5.4975L18.4155 6.15841C18.8031 6.21342 19.127 6.47925 19.2553 6.84591C19.3762 7.2135 19.2719 7.61683 18.9877 7.88175L15.5363 11.1267Z"
          fill="currentColor"/>
</svg>
